<?xml version="1.0" encoding="utf-8"?>
<!-- Generator: Adobe Illustrator 25.2.1, SVG Export Plug-In . SVG Version: 6.00 Build 0)  -->
<svg version="1.1" id="Layer_1" xmlns="http://www.w3.org/2000/svg" xmlns:xlink="http://www.w3.org/1999/xlink" x="0px" y="0px"
	 viewBox="0 0 209 54" style="enable-background:new 0 0 209 54;" xml:space="preserve">
<style type="text/css">
	.st0{fill:#FFFFFF;}
	.st1{fill:#001CFF;}
	.st2{fill:#FFFB00;}
	.st3{fill:#FFD155;}
	.st4{fill:none;stroke:#FF0600;stroke-width:3;stroke-miterlimit:10;}
</style>
<g>
	<path class="st0" d="M105.8,10c-0.1,0.2-0.2,0.4-0.3,0.6c-2.4,4.1-4.8,8.2-7.2,12.3c-0.2,0.4-0.5,0.6-1,0.6c-1,0-2.1,0-3.1,0
		c-0.4,0-0.7-0.1-0.9-0.5c-1.8-3.1-3.7-6.2-5.5-9.3c-0.1-0.2-0.2-0.4-0.4-0.6c-0.2,0.2-0.3,0.4-0.4,0.6c-1.8,3.1-3.6,6.2-5.4,9.3
		c-0.2,0.4-0.5,0.5-0.9,0.5c-1.1,0-2.2,0-3.3,0c-0.2,0-0.5-0.1-0.6-0.3c-2.6-4.3-5.1-8.6-7.7-12.8c0-0.1-0.1-0.1-0.1-0.3
		c1.4,0,2.7,0,4,0c0.2,0,0.4,0.3,0.5,0.5c1.8,3,3.5,6.1,5.3,9.1c0.1,0.2,0.2,0.4,0.4,0.6c0.2-0.2,0.3-0.4,0.4-0.6
		c1.8-3,3.6-6.1,5.4-9.1c0.2-0.4,0.4-0.5,0.9-0.5c1.2,0,2.3,0,3.5,0c0.4,0,0.7,0.2,0.9,0.5c1.7,3,3.5,6,5.2,9.1
		c0.1,0.2,0.2,0.4,0.4,0.6c0.2-0.2,0.3-0.4,0.4-0.6c1.8-3,3.6-6.1,5.4-9.1c0.2-0.4,0.4-0.5,0.8-0.5C103.5,10,104.6,10,105.8,10z"/>
	<path class="st0" d="M133.5,30.4c-1.6,0-3.3,0-4.9,0c0,0,0,0,0,0c-1,0-2.1,0-3.2,0c-1,0-2,0-2.9,0.2c-3.5,0.7-5.7,3.9-5.2,7.5
		c0.4,3.3,2.9,5.7,6.3,5.8c3.3,0.1,6.6,0.1,9.9,0c3.5-0.1,6-2.6,6.3-6.1C140.2,33.5,137,30.4,133.5,30.4z M135.5,39.2
		c-0.5,0.6-1.1,1-1.9,1c-3.4,0-6.7,0.1-10.1,0c-1.4,0-2.4-1.1-2.6-2.5c-0.2-1.6,0.5-3,1.8-3.5c0.4-0.2,1-0.2,1.4-0.2
		c1.5,0,3,0,4.4,0h4.5c1.3,0,2.3,0.6,2.8,1.8C136.4,37,136.4,38.2,135.5,39.2z"/>
	<path class="st0" d="M188.2,35.6c-0.7-3.2-3.3-5.2-6.7-5.2c-4.3,0-8.6,0-12.8,0c-0.2,0-0.4,0-0.6,0v13.4c0.2,0,0.3,0,0.4,0
		c4.4,0,8.8,0,13.2,0c0.4,0,0.9,0,1.3-0.1C186.8,43.1,189.1,39.4,188.2,35.6z M184,39.3c-0.6,0.7-1.3,1-2.2,1c-3.3,0-6.5,0-9.8,0
		c-0.1,0-0.2,0-0.3,0v-6.1c0.2,0,0.4,0,0.6,0c3.1,0,6.2,0,9.2,0c1.4,0,2.4,0.5,2.9,1.8C184.9,37,184.8,38.2,184,39.3z"/>
	<path class="st0" d="M73.1,35.4c-1.1,1.7-0.3,4.7,2.3,4.8c0.2,0,0.5,0,0.8,0h13v3.6c-0.1,0-0.1,0.1-0.2,0.1c-4.6,0-9.3,0-13.9,0
		c-3.3-0.1-5.9-2.9-6.1-6.2c-0.2-3.8,2.2-6.5,5.3-7.1c0.5-0.1,1-0.1,1.6-0.1h12.8c0.2,0,0.4,0,0.6,0v3.6h-0.8c-4.2,0-8.4,0-12.5,0
		C74.7,34,73.7,34.4,73.1,35.4z"/>
	<path class="st0" d="M163.9,38.4c-0.2,2.9-3,5.3-5.9,5.4c-2.7,0.1-5.4,0.1-8.1,0c-3.2-0.1-5.9-2.7-6.1-5.9c-0.1-2.5,0-5,0-7.5h3.6
		v6.8c0,1.7,1,2.9,2.7,3c2.5,0.1,5,0.1,7.5,0c1.7-0.1,2.8-1.3,2.8-3v-6.7h3.6c0,0,0.1,0.1,0.1,0.1C164,33.2,164.2,35.8,163.9,38.4z"
		/>
	<path class="st0" d="M137.5,17.8c-0.2,3.1-3,5.5-6,5.6c-2.6,0.1-5.2,0.1-7.8,0c-3.5-0.1-6.2-2.7-6.3-6.3c-0.1-2.3,0-4.5,0-6.8
		c0-0.1,0-0.2,0.1-0.3h3.6v6.8c0,1.7,1.1,2.9,2.8,3c2.5,0.1,4.9,0.1,7.4,0c1.7,0,2.8-1.3,2.8-3V10h3.7v0.8
		C137.6,13.1,137.7,15.5,137.5,17.8z"/>
	<path class="st1" d="M42.6,11.5c-0.1,0.2-0.2,0.5-0.2,0.7c-1.7,2.8-3.5,5.5-5.2,8.3c-3.8,6.1-7.6,12.2-11.3,18.4
		c-0.1,0.2-0.2,0.4-0.5,0.7c-1.6-9.2-3.2-18.2-4.8-27.3h4.8c0.5,6.8,1,13.6,1.5,20.6c0.2-0.3,0.4-0.5,0.5-0.7
		c4.9-6.7,9.8-13.4,14.8-20.1C42.3,11.8,42.5,11.7,42.6,11.5z"/>
	<path class="st2" d="M53.7,12.2c-2,10.5-4,21-6,31.7c-3.5-5-6.8-9.9-10.2-14.7c0,0,0.1-0.1,0.1-0.1c2.8,3,5.7,6,8.6,9.2
		c1.1-8.7,2.2-17.4,3.3-26H53.7z"/>
	<polygon class="st0" points="161.7,10 161.7,13.6 153.5,13.6 153.5,23.4 149.8,23.4 149.8,13.7 141.6,13.7 141.6,10 	"/>
	<polygon class="st0" points="113.3,40.2 113.3,43.8 93.2,43.8 93.2,30.5 96.8,30.5 96.8,40.2 	"/>
	<path class="st3" d="M43.4,10.6c-0.1,0.2-0.1,0.4-0.2,0.6C39.3,21.6,35.4,32,31.5,42.4c-0.2,0.5-0.4,0.7-0.9,0.7
		c-1.6,0-3.1,0-4.8,0c0.1-0.3,0.2-0.5,0.3-0.7c5.3-9.7,10.6-19.5,15.9-29.2c0.2-0.3,0.3-0.7,0.5-1c0.1-0.2,0.2-0.4,0.2-0.7
		c0.2-0.3,0.4-0.6,0.6-0.9C43.3,10.6,43.4,10.6,43.4,10.6z"/>
	<rect x="109.8" y="10" class="st0" width="3.6" height="13.4"/>
	<line class="st4" x1="60.2" y1="10.6" x2="60.1" y2="44"/>
</g>
</svg>
